# Blender v3.1.2 OBJ File: ''
# www.blender.org
# mtllib cube_rot_tris.mtl
o Cube
v 0.325216 1.587852 0.610705
v 1.376312 0.662097 -0.816941
v 0.325216 -0.090224 1.698851
v 1.376312 -1.015979 0.271204
v -1.376312 1.015979 -0.271204
v -0.325216 0.090224 -1.698851
v -1.376312 -0.662097 0.816941
v -0.325216 -1.587852 -0.610705
vt 0.875000 0.500000
vt 0.625000 0.750000
vt 0.625000 0.500000
vt 0.375000 1.000000
vt 0.375000 0.750000
vt 0.625000 0.000000
vt 0.375000 0.250000
vt 0.375000 0.000000
vt 0.375000 0.500000
vt 0.125000 0.750000
vt 0.125000 0.500000
vt 0.625000 0.250000
vt 0.875000 0.750000
vt 0.625000 1.000000
vn -0.5255 0.4629 0.7138
vn -0.0000 -0.8390 0.5441
vn -0.8508 -0.2859 -0.4410
vn 0.5255 -0.4629 -0.7138
vn 0.8508 0.2859 0.4410
vn 0.0000 0.8390 -0.5441
# usemtl Material
s off
f 5/1/1 3/2/1 1/3/1
f 3/2/2 8/4/2 4/5/2
f 7/6/3 6/7/3 8/8/3
f 2/9/4 8/10/4 6/11/4
f 1/3/5 4/5/5 2/9/5
f 5/12/6 2/9/6 6/7/6
f 5/1/1 7/13/1 3/2/1
f 1/3/5 3/2/5 4/5/5
f 3/2/2 7/14/2 8/4/2
f 7/6/3 5/12/3 6/7/3
f 2/9/4 4/5/4 8/10/4
f 5/12/6 1/3/6 2/9/6
