# Blender v3.1.2 OBJ File: ''
# www.blender.org
# mtllib weird_tris.mtl
o Cube
v 1.000000 1.000000 -1.000000
v 1.000000 -1.000000 -1.000000
v 1.000000 1.000000 1.000000
v 1.000000 -1.000000 1.000000
v -1.000000 1.000000 -1.000000
v -1.000000 -1.000000 -1.000000
v -1.000000 1.000000 1.000000
v -1.000000 -1.000000 1.000000
v 0.835242 2.026649 0.107525
v -1.164758 2.026649 0.107525
v 0.835242 2.026649 -1.892475
v -1.164758 2.026649 -1.892475
v -1.958662 -0.285050 2.289114
v -1.958662 1.714950 2.289114
v 0.041338 1.714950 2.289114
v 0.041338 -0.285050 2.289114
v 0.869597 1.812574 -0.176553
v 0.940255 1.372285 0.158455
v 0.946126 1.335703 -0.440757
v 0.875188 1.777737 -0.630577
v 1.649810 1.937784 -0.176553
v 1.720468 1.497494 0.158455
v 1.726339 1.460913 -0.440757
v 1.655401 1.902946 -0.630577
vt 0.625000 0.250000
vt 0.625000 0.000000
vt 0.625000 0.250000
vt 0.625000 0.000000
vt 0.375000 0.000000
vt 0.625000 0.000000
vt 0.375000 0.250000
vt 0.375000 0.000000
vt 0.375000 0.500000
vt 0.125000 0.750000
vt 0.125000 0.500000
vt 0.625000 0.500000
vt 0.375000 0.750000
vt 0.875000 0.500000
vt 0.625000 0.750000
vt 0.625000 0.500000
vt 0.625000 0.630690
vt 0.625000 1.000000
vt 0.625000 1.000000
vt 0.625000 0.750000
vt 0.375000 1.000000
vt 0.375000 0.750000
vt 0.125000 0.750000
vt 0.625000 0.750000
vt 0.625000 0.606384
vt 0.625000 0.691228
vt 0.625000 0.685261
vt 0.625000 0.685261
vt 0.625000 0.691228
vt 0.625000 0.630690
vt 0.625000 0.606384
vt 0.875000 0.750000
vt 0.625000 1.000000
vn -0.9874 -0.1585 0.0000
vn -0.8024 0.0000 -0.5967
vn -1.0000 0.0000 0.0000
vn 0.0000 -1.0000 0.0000
vn 1.0000 0.0000 0.0000
vn 0.0000 0.0000 -1.0000
vn 0.0000 1.0000 0.0000
vn 0.9874 0.1585 0.0000
vn 0.0000 -0.6561 -0.7547
vn 0.0000 0.6561 0.7547
vn 0.0000 0.0000 1.0000
vn 0.0000 -0.8745 0.4850
vn 0.0000 0.8745 -0.4850
vn 0.8024 0.0000 0.5967
vn -0.1580 0.9844 -0.0775
vn 0.1582 -0.9855 0.0617
vn 0.0619 -0.3854 -0.9207
vn -0.0952 0.5931 0.7995
# usemtl Material
s off
f 5/1/1 10/2/1 12/3/1
f 7/4/2 13/5/2 14/6/2
f 7/4/3 6/7/3 8/8/3
f 2/9/4 8/10/4 6/11/4
f 1/12/5 4/13/5 2/9/5
f 5/1/6 2/9/6 6/7/6
f 12/14/7 9/15/7 11/16/7
f 20/17/8 11/16/8 9/15/8
f 5/1/9 11/16/9 1/12/9
f 7/18/10 9/15/10 10/19/10
f 15/20/11 13/21/11 16/22/11
f 8/10/12 16/22/12 13/23/12
f 7/18/13 15/20/13 3/24/13
f 3/24/14 16/22/14 4/13/14
f 23/25/8 21/26/8 22/27/8
f 18/28/8 3/24/8 1/12/8
f 17/29/15 24/30/15 20/17/15
f 18/28/16 23/25/16 22/27/16
f 20/17/17 23/25/17 19/31/17
f 17/29/18 22/27/18 21/26/18
f 5/1/1 7/4/1 10/2/1
f 7/4/2 8/8/2 13/5/2
f 7/4/3 5/1/3 6/7/3
f 2/9/4 4/13/4 8/10/4
f 1/12/5 3/24/5 4/13/5
f 5/1/6 1/12/6 2/9/6
f 12/14/7 10/32/7 9/15/7
f 9/15/8 3/24/8 18/28/8
f 9/15/8 18/28/8 17/29/8
f 20/17/8 1/12/8 11/16/8
f 9/15/8 17/29/8 20/17/8
f 5/1/9 12/3/9 11/16/9
f 7/18/10 3/24/10 9/15/10
f 15/20/11 14/33/11 13/21/11
f 8/10/12 4/13/12 16/22/12
f 7/18/13 14/33/13 15/20/13
f 3/24/14 15/20/14 16/22/14
f 23/25/8 24/30/8 21/26/8
f 1/12/8 20/17/8 19/31/8
f 19/31/8 18/28/8 1/12/8
f 17/29/15 21/26/15 24/30/15
f 18/28/16 19/31/16 23/25/16
f 20/17/17 24/30/17 23/25/17
f 17/29/18 18/28/18 22/27/18
